<svg id="Layer_1" data-name="Layer 1" xmlns="http://www.w3.org/2000/svg" viewBox="0 0 315.43 581.24"><defs><style>.cls-1{fill:#fff;}</style></defs><title>TutorD_Logo</title><path class="cls-1" d="M696.2,679H593.68V647.57h33.55V627.4H593.68V570.46h17.91V549.7H593.68V481.5h33.57V463.11H593.68V397.87h18V386h-18V313.65h33.67V295.51H623.2l-29.52-.25V234.17h17.94V213.42H593.68V150.55l30.09.25h3.47V130.38H593.68V97.76h102.5c0,2.23,0,4,0,5.77q.23,20,.43,40c0,1.76.54,2.64,2.45,2.88,3,.39,6,1.12,9,1.7,57.31,11,105.44,38.18,143.22,82.78,34.09,40.23,53.33,86.9,57.15,139.57a241.22,241.22,0,0,1-5.16,71c-9.7,42.73-29.29,80.34-59.12,112.43-34.24,36.83-76,60.8-124.94,72.3-7.38,1.74-14.84,3.13-23,4.85Zm.37-163.12c42.75-9.26,100.74-54.67,99.25-130.92-.69-35.4-14.39-64.69-38.53-89.56-16.84-17.35-37.28-28.79-60.72-34.81Z" transform="translate(-593.68 -97.76)"/></svg>